<?xml version="1.0" encoding="UTF-8"?> <svg xmlns="http://www.w3.org/2000/svg" width="274" height="86" viewBox="0 0 274 86" fill="none"> <path d="M15.2615 40.8466L25.5853 40.8466L25.5853 75.858L15.2615 67.4194L15.2615 40.8466Z" fill="black"></path> <path d="M63.7386 40.8466L53.4148 40.8466L53.4148 75.858L63.7386 67.4194L63.7386 40.8466Z" fill="black"></path> <path d="M34.1137 40.8466L44.8864 40.8466L44.8864 80.9618L39.5001 85.2842L34.1137 80.9618L34.1137 40.8466Z" fill="black"></path> <path d="M12.5682 40.8466H27.8296V43.0909H13.6583L12.5682 40.8466Z" fill="black"></path> <path d="M66.4319 40.8466H51.1705V43.0909H65.3418L66.4319 40.8466Z" fill="black"></path> <rect x="31.8694" y="40.8466" width="15.2614" height="2.24432" fill="black"></rect> <path d="M4.93744 30.0739H74.0625L72.1942 33.6648H6.80568L4.93744 30.0739Z" fill="black"></path> <path d="M9.42603 35.4603H69.5738L67.6942 39.0512H11.3056L9.42603 35.4603Z" fill="black"></path> <path d="M35.9091 10.3239H43.0909V28.2784H35.9091V10.3239Z" fill="black"></path> <circle cx="39.5001" cy="7.63069" r="7.63069" fill="black"></circle> <circle cx="3.59091" cy="31.8694" r="3.59091" fill="black"></circle> <circle cx="75.409" cy="31.8694" r="3.59091" fill="black"></circle> <path d="M103.185 36.335C104.039 36.629 104.704 37.091 105.18 37.721C105.67 38.337 105.915 39.058 105.915 39.884C105.915 40.78 105.621 41.557 105.033 42.215C104.445 42.873 103.647 43.377 102.639 43.727C101.645 44.077 100.553 44.252 99.363 44.252C98.355 44.252 97.347 44.126 96.339 43.874C95.345 43.622 94.4 43.237 93.504 42.719L94.554 40.283C95.198 40.675 95.905 40.976 96.675 41.186C97.459 41.382 98.222 41.48 98.964 41.48C99.972 41.48 100.805 41.298 101.463 40.934C102.135 40.57 102.471 40.059 102.471 39.401C102.471 38.855 102.24 38.442 101.778 38.162C101.33 37.882 100.714 37.742 99.93 37.742H96.339V35.18H99.678C100.364 35.18 100.896 35.04 101.274 34.76C101.666 34.48 101.862 34.095 101.862 33.605C101.862 33.031 101.582 32.583 101.022 32.261C100.476 31.939 99.769 31.778 98.901 31.778C98.257 31.778 97.592 31.869 96.906 32.051C96.22 32.219 95.569 32.478 94.953 32.828L93.924 30.182C95.478 29.384 97.158 28.985 98.964 28.985C100.112 28.985 101.169 29.153 102.135 29.489C103.101 29.825 103.871 30.315 104.445 30.959C105.019 31.603 105.306 32.352 105.306 33.206C105.306 33.906 105.117 34.529 104.739 35.075C104.361 35.621 103.843 36.041 103.185 36.335ZM122.62 29.3L116.362 40.934C115.76 42.054 115.032 42.901 114.178 43.475C113.338 44.049 112.421 44.336 111.427 44.336C110.657 44.336 109.859 44.168 109.033 43.832L109.852 41.249C110.44 41.431 110.93 41.522 111.322 41.522C111.742 41.522 112.12 41.424 112.456 41.228C112.792 41.018 113.1 40.696 113.38 40.262L113.506 40.094L107.71 29.3H111.343L115.249 37.196L119.281 29.3H122.62ZM136.564 41.27V44H125.182V29.3H136.291V32.03H128.563V35.222H135.388V37.868H128.563V41.27H136.564ZM150.442 36.335C151.338 36.601 152.024 37.035 152.5 37.637C152.976 38.239 153.214 38.981 153.214 39.863C153.214 41.165 152.717 42.18 151.723 42.908C150.743 43.636 149.336 44 147.502 44H140.257V29.3H147.103C148.811 29.3 150.141 29.629 151.093 30.287C152.045 30.945 152.521 31.883 152.521 33.101C152.521 33.829 152.339 34.473 151.975 35.033C151.611 35.579 151.1 36.013 150.442 36.335ZM143.638 35.39H146.809C147.551 35.39 148.111 35.243 148.489 34.949C148.867 34.641 149.056 34.193 149.056 33.605C149.056 33.031 148.86 32.59 148.468 32.282C148.09 31.974 147.537 31.82 146.809 31.82H143.638V35.39ZM147.376 41.48C148.972 41.48 149.77 40.85 149.77 39.59C149.77 38.372 148.972 37.763 147.376 37.763H143.638V41.48H147.376ZM94.584 53.8H96.632V61.752L102.648 53.8H104.584V65H102.536V57.064L96.52 65H94.584V53.8ZM125.266 53.8V65H123.218V55.56H117.41V65H115.362V53.8H125.266ZM137.448 62.408H131.848L130.744 65H128.6L133.64 53.8H135.688L140.744 65H138.568L137.448 62.408ZM136.76 60.776L134.648 55.88L132.552 60.776H136.76ZM148.67 53.8C149.64 53.8 150.483 53.96 151.198 54.28C151.923 54.6 152.478 55.0587 152.862 55.656C153.246 56.2533 153.438 56.9627 153.438 57.784C153.438 58.5947 153.246 59.304 152.862 59.912C152.478 60.5093 151.923 60.968 151.198 61.288C150.483 61.608 149.64 61.768 148.67 61.768H146.142V65H144.062V53.8H148.67ZM148.574 60.008C149.48 60.008 150.168 59.816 150.638 59.432C151.107 59.048 151.342 58.4987 151.342 57.784C151.342 57.0693 151.107 56.52 150.638 56.136C150.168 55.752 149.48 55.56 148.574 55.56H146.142V60.008H148.574ZM164.805 55.56H161.093V65H159.029V55.56H155.333V53.8H164.805V55.56ZM178.151 53.8V65H176.071V60.2H170.279V65H168.199V53.8H170.279V58.424H176.071V53.8H178.151ZM191.293 63.256V65H182.893V53.8H191.069V55.544H184.973V58.456H190.381V60.168H184.973V63.256H191.293ZM185.453 52.712C185.176 52.712 184.946 52.6213 184.765 52.44C184.584 52.2587 184.493 52.0293 184.493 51.752C184.493 51.464 184.584 51.2293 184.765 51.048C184.946 50.8667 185.176 50.776 185.453 50.776C185.73 50.776 185.96 50.8667 186.141 51.048C186.322 51.2293 186.413 51.464 186.413 51.752C186.413 52.0293 186.322 52.2587 186.141 52.44C185.96 52.6213 185.73 52.712 185.453 52.712ZM188.557 52.712C188.28 52.712 188.05 52.6213 187.869 52.44C187.688 52.2587 187.597 52.0293 187.597 51.752C187.597 51.464 187.688 51.2293 187.869 51.048C188.05 50.8667 188.28 50.776 188.557 50.776C188.834 50.776 189.064 50.8667 189.245 51.048C189.426 51.2293 189.517 51.464 189.517 51.752C189.517 52.0293 189.426 52.2587 189.245 52.44C189.064 52.6213 188.834 52.712 188.557 52.712ZM199.82 53.8C200.79 53.8 201.633 53.96 202.348 54.28C203.073 54.6 203.628 55.0587 204.012 55.656C204.396 56.2533 204.588 56.9627 204.588 57.784C204.588 58.5947 204.396 59.304 204.012 59.912C203.628 60.5093 203.073 60.968 202.348 61.288C201.633 61.608 200.79 61.768 199.82 61.768H197.292V65H195.212V53.8H199.82ZM199.724 60.008C200.63 60.008 201.318 59.816 201.788 59.432C202.257 59.048 202.492 58.4987 202.492 57.784C202.492 57.0693 202.257 56.52 201.788 56.136C201.318 55.752 200.63 55.56 199.724 55.56H197.292V60.008H199.724ZM213.324 57.592C214.668 57.592 215.697 57.896 216.412 58.504C217.137 59.1013 217.5 59.992 217.5 61.176C217.5 62.4133 217.105 63.3627 216.316 64.024C215.526 64.6747 214.417 65 212.988 65H208.172V53.8H210.22V57.592H213.324ZM212.892 63.4C213.702 63.4 214.326 63.2133 214.764 62.84C215.201 62.4667 215.42 61.9227 215.42 61.208C215.42 59.8533 214.577 59.176 212.892 59.176H210.22V63.4H212.892ZM219.116 53.8H221.164V65H219.116V53.8Z" fill="black"></path> </svg> 